HIERARCHY
ROOT SpineBase
{
  OFFSET 0.000000 0.000000 0.000000
  CHANNELS 6 Xposition Yposition Zposition Zrotation Xrotation Yrotation
  JOINT SpineMid
  {
    OFFSET -0.000000 24.905300 0.000000
    CHANNELS 3 Zrotation Xrotation Yrotation
    JOINT SpineShoulder
    {
      OFFSET -0.119784 18.821305 -0.529790
      CHANNELS 3 Zrotation Xrotation Yrotation
      JOINT Neck
      {
        OFFSET 0.004923 6.408572 -0.394545
        CHANNELS 3 Zrotation Xrotation Yrotation
        JOINT Head
        {
          OFFSET 5.090495 12.714613 0.243571
          CHANNELS 3 Zrotation Xrotation Yrotation
          End Site
          {
            OFFSET 0 0 0
          }
        }
      }
      JOINT ShoulderLeft
      {
        OFFSET -10.481767 1.021721 -6.479794
        CHANNELS 3 Zrotation Xrotation Yrotation
        JOINT ElbowLeft
        {
          OFFSET -4.129989 -15.007535 -9.381914
          CHANNELS 3 Zrotation Xrotation Yrotation
          JOINT WristLeft
          {
            OFFSET -1.697242 -21.682392 -1.291204
            CHANNELS 3 Zrotation Xrotation Yrotation
            JOINT HandLeft
            {
              OFFSET 1.159846 -5.065668 -0.362729
              CHANNELS 3 Zrotation Xrotation Yrotation
              JOINT HandTipLeft
              {
                OFFSET -1.959897 -7.575978 -3.217383
                CHANNELS 3 Zrotation Xrotation Yrotation
                End Site
                {
                  OFFSET 0 0 0
                }
              }
              JOINT ThumbLeft
              {
                OFFSET 2.359216 0.777244 -1.457761
                CHANNELS 3 Zrotation Xrotation Yrotation
                End Site
                {
                  OFFSET 0 0 0
                }
              }
            }
          }
        }
      }
      JOINT ShoulderRight
      {
        OFFSET 13.471980 -7.886919 9.289026
        CHANNELS 3 Zrotation Xrotation Yrotation
        JOINT ElbowRight
        {
          OFFSET -1.220306 -24.096946 -0.015780
          CHANNELS 3 Zrotation Xrotation Yrotation
          JOINT WristRight
          {
            OFFSET -2.112042 -18.816882 -4.861384
            CHANNELS 3 Zrotation Xrotation Yrotation
            JOINT HandRight
            {
              OFFSET -2.517638 -5.616384 -2.003716
              CHANNELS 3 Zrotation Xrotation Yrotation
              JOINT HandTipRight
              {
                OFFSET -0.269945 -6.713044 -3.121774
                CHANNELS 3 Zrotation Xrotation Yrotation
                End Site
                {
                  OFFSET 0 0 0
                }
              }
              JOINT ThumbRight
              {
                OFFSET 1.538046 -3.891704 -2.306379
                CHANNELS 3 Zrotation Xrotation Yrotation
                End Site
                {
                  OFFSET 0 0 0
                }
              }
            }
          }
        }
      }
    }
  }
  JOINT HipLeft
  {
    OFFSET -5.473802 2.922627 -6.665992
    CHANNELS 3 Zrotation Xrotation Yrotation
    JOINT KneeLeft
    {
      OFFSET -7.312783 -27.793120 -10.262455
      CHANNELS 3 Zrotation Xrotation Yrotation
      JOINT AnkleLeft
      {
        OFFSET -16.588486 -40.522919 -0.611273
        CHANNELS 3 Zrotation Xrotation Yrotation
        JOINT FootLeft
        {
          OFFSET 3.416104 -8.188341 7.274649
          CHANNELS 3 Zrotation Xrotation Yrotation
          End Site
          {
            OFFSET 0 0 0
          }
        }
      }
    }
  }
  JOINT HipRight
  {
    OFFSET 5.323904 -0.735468 1.023194
    CHANNELS 3 Zrotation Xrotation Yrotation
    JOINT KneeRight
    {
      OFFSET -10.005875 -37.115976 -7.667036
      CHANNELS 3 Zrotation Xrotation Yrotation
      JOINT AnkleRight
      {
        OFFSET -16.580845 -37.157950 4.181214
        CHANNELS 3 Zrotation Xrotation Yrotation
        JOINT FootRight
        {
          OFFSET -7.554805 0.184842 -10.244626
          CHANNELS 3 Zrotation Xrotation Yrotation
          End Site
          {
            OFFSET 0 0 0
          }
        }
      }
    }
  }
}
MOTION
Frames: 6
Frame Time: 0.033333
0.054604 77.158846 310.863816 -12.006192 -0.995583 -39.588242 0.591551 -1.167533 38.995787 0.355681 -1.706741 -0.556802 4.465540 -0.826677 2.574213 0.000000 0.000000 0.000000 15.247006 -5.881789 1.107643 29.832523 18.874716 -11.824055 -1.369432 25.101698 2.249480 78.834187 -48.195399 43.353067 0.000000 0.000000 0.000000 0.000000 0.000000 0.000000 12.373910 0.824856 0.449090 -62.377411 68.290657 43.670097 -23.212842 -33.060650 -24.777828 -6.701415 7.206356 20.879270 0.000000 0.000000 0.000000 0.000000 0.000000 0.000000 33.005977 2.623151 35.657252 -19.840336 21.793349 3.454336 5.921120 -3.749294 3.864604 0.000000 0.000000 0.000000 20.499396 7.012247 37.781641 -5.276701 6.749791 0.740635 -0.079972 -22.586946 -54.520358 0.000000 0.000000 0.000000
-0.482464 75.241001 311.046014 -12.629359 -4.762162 -44.683731 0.728560 -1.583485 43.595400 0.165944 -0.641724 -0.465444 4.008006 3.105298 2.528049 0.000000 0.000000 0.000000 14.623020 1.483513 0.416694 20.854972 14.394561 -6.562436 -35.276833 32.085714 14.068762 122.995208 -39.694201 59.082808 0.000000 0.000000 0.000000 0.000000 0.000000 0.000000 12.870658 3.172286 0.188995 -64.339232 67.586506 45.770164 -1.809147 -48.837263 -11.769454 -29.241923 21.000579 27.600353 0.000000 0.000000 0.000000 0.000000 0.000000 0.000000 31.614349 7.524229 38.337859 -22.239591 25.138588 3.427695 13.601153 -14.963726 7.048437 0.000000 0.000000 0.000000 16.322457 13.267604 41.145321 -5.063512 4.116858 1.496544 -2.523123 -21.254322 -64.013327 0.000000 0.000000 0.000000
-1.188785 73.383683 310.284866 -13.464272 -7.702301 -49.295118 0.551686 -1.219872 47.832208 0.481258 -0.382180 -0.453268 1.828899 6.147398 2.751999 0.000000 0.000000 0.000000 13.426832 9.502081 -0.299510 11.358906 2.797005 -1.183312 -31.103571 23.432457 12.112101 105.181878 -50.422660 46.228210 0.000000 0.000000 0.000000 0.000000 0.000000 0.000000 12.662069 4.420404 0.051356 -68.565198 67.910286 50.400735 23.951886 -65.241216 10.337665 -46.047587 41.540156 39.446103 0.000000 0.000000 0.000000 0.000000 0.000000 0.000000 30.030890 10.697077 41.807196 -20.786908 26.393781 2.837696 16.972638 -20.062396 8.546702 0.000000 0.000000 0.000000 10.216427 18.490282 45.163712 -1.433702 -1.383757 3.332243 -6.158962 -18.249753 -69.645630 0.000000 0.000000 0.000000
-2.009421 71.593916 308.512125 -13.820776 -10.269332 -52.478469 0.328858 -0.757160 50.710795 0.706150 -0.252732 -0.443932 -0.232055 8.881166 3.049175 0.000000 0.000000 0.000000 11.529906 17.254999 -0.528732 8.873138 -11.570909 1.662269 -32.086826 12.307279 8.023348 75.793415 -42.476935 12.537423 0.000000 0.000000 0.000000 0.000000 0.000000 0.000000 12.434500 5.422035 -0.089541 -68.558099 68.306694 50.947064 18.232999 -70.428741 7.718836 -40.910298 50.985480 39.839816 0.000000 0.000000 0.000000 0.000000 0.000000 0.000000 28.801157 11.857341 44.863517 -16.904359 26.277190 1.927734 14.714568 -20.502048 6.522464 0.000000 0.000000 0.000000 6.494846 21.325152 48.197563 0.146096 -3.212704 4.211635 -7.814477 -18.145275 -71.203629 0.000000 0.000000 0.000000
-3.291495 70.485618 305.186024 -14.130258 -11.704655 -55.403828 0.081412 -0.179924 53.463108 0.563753 0.227202 -0.380091 -1.250399 9.878528 3.149234 0.000000 0.000000 0.000000 11.265357 20.163090 -0.851340 10.477009 -24.574126 4.266916 -47.917246 2.390502 7.731738 79.717460 -30.712478 -5.660064 0.000000 0.000000 0.000000 0.000000 0.000000 0.000000 12.749237 5.278379 -0.141777 -69.586572 68.293767 51.842651 6.939546 -77.067763 -0.132106 -34.977436 61.417313 39.600586 0.000000 0.000000 0.000000 0.000000 0.000000 0.000000 30.479763 11.651185 47.824268 -12.928814 25.909242 1.510220 6.257578 -20.454359 -1.247397 0.000000 0.000000 0.000000 5.311461 22.034231 51.170905 1.387039 -2.939555 4.438702 -8.227171 -17.777464 -67.351976 0.000000 0.000000 0.000000
-4.541978 69.850478 301.730636 -14.093706 -13.103559 -57.596056 0.163998 -0.200437 55.467013 0.860627 -0.327306 -0.453456 -2.697963 13.621400 3.243841 0.000000 0.000000 0.000000 11.450407 19.592931 -0.845560 17.154521 -34.456174 7.711248 -76.541347 -83.031966 -96.348627 7.410959 77.569459 -9.314409 0.000000 0.000000 0.000000 0.000000 0.000000 0.000000 12.563910 7.299330 -0.374176 -69.739737 68.569964 51.910408 -22.016749 -75.890532 -25.298792 -10.271577 67.151986 23.308511 0.000000 0.000000 0.000000 0.000000 0.000000 0.000000 31.545209 11.631379 49.981171 -8.314214 23.314141 1.351649 1.709560 -11.856423 -3.081014 0.000000 0.000000 0.000000 3.321947 22.174528 53.760707 3.483766 -3.799769 5.059900 -9.923713 -16.600516 -68.386965 0.000000 0.000000 0.000000
